<svg id="Layer_1" enable-background="new 0 0 478.678 478.678" height="512" viewBox="0 0 478.678 478.678" width="512" xmlns="http://www.w3.org/2000/svg"><g><g><path d="m367.786 126.901h-15v-15h15zm-30 0h-15v-15h15zm-30 0h-15v-15h15z"/></g><g><path d="m71.331 0v224.339h15v-132.339h305.817l-.801 371.678h-305.016v-224.402h-15v239.401h334.983l1.033-478.677zm50.125 77v-30.161h42.875v-15h-57.875v45.161h-20.125v-62h305.983l-.036 16.839h-212.822v15h212.79l-.066 30.161z"/><path d="m154.331 284.42v.218c-27.782 2.406-49.66 25.773-49.66 54.168v95.032h269.337v-95.032c0-28.401-21.886-51.773-49.677-54.17v-.217c-.707 0-37.908 0-37.908 0 4.064-7.069 6.587-15.128 7.099-23.724 16.248-4.11 28.309-18.849 28.309-36.357v-22.438h-15.5v-25.063c0-15.164-12.337-27.5-27.5-27.5h-2.467c-2.383-12.754-13.599-22.438-27.033-22.438h-39.875c-20.678 0-37.5 16.822-37.5 37.5v37.438h-15.125v22c0 17.465 12.001 32.179 28.19 36.329.438 8.795 2.989 17.037 7.136 24.252 0 .002-37.118.002-37.826.002zm54.114 17.713v24.961c0 17.035 13.859 30.895 30.895 30.895s30.895-13.859 30.895-30.895v-25.031c1.204-.837 2.378-1.714 3.508-2.643h21.302c-4.308 5.95-6.856 13.252-6.856 21.142v25.609c0 12.407-10.094 22.5-22.5 22.5h-52.715c-12.406 0-22.5-10.093-22.5-22.5v-25.609c0-7.89-2.549-15.192-6.856-21.142h21.221c1.161.955 2.367 1.855 3.606 2.713zm15 7.275c5.016 1.532 10.335 2.363 15.846 2.363 5.546 0 10.899-.84 15.943-2.391v17.714c0 8.764-7.13 15.895-15.895 15.895s-15.895-7.13-15.895-15.895v-17.686zm15.846-12.637c-20.373 0-37.177-15.568-39.144-35.432h19.577l19.106 19.106 18.606-18.606h20.938c-2.197 19.624-18.882 34.932-39.083 34.932zm-119.621 42.036c0-20.81 16.226-37.891 36.689-39.284 10.374.993 18.559 9.515 19.062 20.023h-3.251c-20.678 0-37.5 16.822-37.5 37.5v61.793h-15zm239.337 0v80.032h-15v-30.167h-15v30.167h-179.337v-61.793c0-12.407 10.094-22.5 22.5-22.5h3.303v11.625c0 20.678 16.822 37.5 37.5 37.5h52.715c20.678 0 37.5-16.822 37.5-37.5v-11.625h3.319c12.406 0 22.5 10.093 22.5 22.5v17.627h15v-17.627c0-20.678-16.822-37.5-37.5-37.5h-3.268c.503-10.511 8.693-19.035 19.073-20.023 20.466 1.389 36.695 18.471 36.695 39.284zm-172.051-174.406c0-12.407 10.094-22.5 22.5-22.5h39.875c6.893 0 12.5 5.607 12.5 12.5v9.938h17c6.893 0 12.5 5.607 12.5 12.5v25.063h-1.677c-4.113-10.124-11.229-18.868-20.462-24.991l-3.132-2.077-3.539 1.266c-6.594 2.359-14.896 3.658-23.377 3.658-8.408 0-16.653-1.278-23.215-3.599l-3.539-1.251-3.123 2.083c-9.153 6.104-16.214 14.796-20.313 24.849h-1.997v-37.439zm85.967 37.5h-21.636l-11.894 11.894-11.956-11.956h-21.713c2.389-3.907 5.432-7.412 9.049-10.309 7.364 2.118 15.702 3.228 24.37 3.228 8.755 0 17.166-1.131 24.583-3.291 3.675 2.929 6.783 6.469 9.197 10.434zm-101.092 21.938v-7h49.394l18.169 18.169 18.106-18.106h49.331v7.438c0 12.407-10.094 22.5-22.5 22.5h-33.106l-12.394 12.394-12.894-12.894h-31.606c-12.407-.001-22.5-10.094-22.5-22.501z"/></g></g></svg>